<svg width="48" height="35" viewBox="0 0 48 35" fill="none" xmlns="http://www.w3.org/2000/svg">
<path fill-rule="evenodd" clip-rule="evenodd" d="M37.5 0C35.7361 0.00187 34.0012 0.44845 32.4556 1.29845C30.9101 2.14844 29.6037 3.37442 28.6575 4.863C24.5265 5.3025 21.0045 8.0535 19.4655 11.979C19.041 11.916 18.6195 11.838 18.1905 11.8365H18.1875C13.8735 11.8365 10.3305 15.0165 9.5595 19.218C8.955 19.065 8.3535 18.8895 7.7295 18.888H7.725C3.465 18.891 0 22.4025 0 26.6985C0 30.9945 3.4635 34.4985 7.725 34.5C7.899 34.5 8.0295 34.482 8.136 34.476C8.046 34.476 8.0715 34.5 8.3055 34.5H39.6945C40.3665 34.5 40.9845 34.35 41.5485 34.146C45.363 33.0465 47.997 29.526 48 25.524C47.9988 24.1361 47.6763 22.7674 47.0577 21.525C46.4391 20.2827 45.5413 19.2004 44.4345 18.363C45.5537 17.3812 46.4506 16.172 47.0655 14.8161C47.6803 13.4602 47.9989 11.9888 48 10.5C48 4.71 43.29 0 37.5 0ZM37.5 1.5C42.48 1.5 46.5 5.52 46.5 10.5C46.5 15.48 42.48 19.5 37.5 19.5C32.52 19.5 28.5 15.48 28.5 10.5C28.5 5.52 32.52 1.5 37.5 1.5ZM37.998 4.3005C37.8062 4.3101 37.6253 4.3929 37.4928 4.5319C37.3602 4.6709 37.286 4.8554 37.2855 5.0475L37.2825 5.7915C36.2645 5.8314 35.2782 6.1562 34.4357 6.729C33.5932 7.3018 32.9284 8.0995 32.517 9.0315C32.0798 10.0266 31.9484 11.1292 32.1394 12.1991C32.3303 13.2691 32.8351 14.2581 33.5895 15.0405C34.3428 15.8212 35.3124 16.3587 36.3736 16.5837C37.4349 16.8088 38.5392 16.7112 39.5445 16.3035C40.5505 15.8924 41.4112 15.1911 42.0171 14.289C42.623 13.3868 42.9465 12.3247 42.9465 11.238C42.9465 11.0391 42.8675 10.8483 42.7268 10.7077C42.5862 10.567 42.3954 10.488 42.1965 10.488C41.9976 10.488 41.8068 10.567 41.6662 10.7077C41.5255 10.8483 41.4465 11.0391 41.4465 11.238C41.4465 12.858 40.4715 14.3085 38.979 14.9145C38.2513 15.2114 37.4513 15.2831 36.6824 15.1202C35.9136 14.9574 35.2113 14.5675 34.6665 14.001C34.1187 13.4325 33.7524 12.7139 33.6143 11.9365C33.4762 11.1592 33.5725 10.3584 33.891 9.636C34.1834 8.9693 34.6552 8.3968 35.2537 7.9824C35.8522 7.5679 36.554 7.3277 37.281 7.2885L37.278 7.995C37.2775 8.1479 37.3238 8.2974 37.4106 8.4232C37.4975 8.5491 37.6207 8.6454 37.7639 8.6993C37.907 8.7532 38.0632 8.762 38.2115 8.7246C38.3597 8.6872 38.493 8.6053 38.5935 8.49L39.8835 7.011C40.0021 6.8745 40.0674 6.6998 40.0674 6.519C40.0674 6.3382 40.0021 6.1635 39.8835 6.027L38.598 4.557C38.5236 4.4721 38.431 4.405 38.3272 4.3609C38.2233 4.3167 38.1108 4.2951 37.998 4.3005ZM27.7905 6.513C27.2683 7.7774 26.9997 9.132 27 10.5C27 16.29 31.71 21 37.5 21C39.6 21 41.553 20.3745 43.1955 19.3095C44.2136 19.9958 45.0474 20.9217 45.6236 22.0059C46.1998 23.0901 46.5008 24.2992 46.5 25.527C46.4955 28.878 44.298 31.8075 41.118 32.7165C41.1003 32.7214 41.0828 32.7269 41.0655 32.733C40.6065 32.9025 40.1565 33.003 39.6945 33.003H8.3055C8.4345 33.003 8.3745 32.979 8.121 32.979C8.10351 32.9784 8.08599 32.9784 8.0685 32.979C7.95439 32.9913 7.83976 32.9983 7.725 33C4.284 33 1.5 30.1935 1.5 26.6985C1.5 23.2035 4.281 20.3955 7.722 20.394C8.442 20.394 9.1515 20.526 9.8265 20.775C9.93459 20.8151 10.0505 20.8298 10.1652 20.8179C10.2798 20.8059 10.3902 20.7677 10.4877 20.7062C10.5852 20.6447 10.6672 20.5615 10.7274 20.4631C10.7875 20.3647 10.8242 20.2538 10.8345 20.139C11.1825 16.2795 14.3655 13.344 18.1845 13.3425C18.705 13.3425 19.2255 13.401 19.734 13.512C19.9153 13.5518 20.105 13.5229 20.2663 13.4309C20.4275 13.3389 20.5489 13.1903 20.607 13.014C21.1337 11.3979 22.0739 9.9477 23.3343 8.8073C24.5947 7.6669 26.13 6.8759 27.7905 6.513Z" fill="#3B5941"/>
</svg>
