<svg width="33" height="45" viewBox="0 0 33 45" fill="none" xmlns="http://www.w3.org/2000/svg">
<path d="M22.3047 0.342773C22.5558 0.298999 22.8141 0.338131 23.041 0.454102C23.268 0.57017 23.4519 0.757077 23.5635 0.986328C23.6747 1.21512 23.7086 1.47391 23.6602 1.72363L20.9111 15.4727L20.8574 15.7432L21.1162 15.8408L31.918 19.8926H31.9189C32.1003 19.96 32.2625 20.0718 32.3906 20.2168C32.4866 20.3255 32.5612 20.4507 32.6113 20.5859L32.6533 20.7236C32.6965 20.9107 32.693 21.1055 32.6436 21.291C32.6063 21.4304 32.5432 21.5616 32.459 21.6777L32.3682 21.7891L11.3682 44.2881C11.1938 44.4741 10.964 44.5988 10.7129 44.6426C10.4619 44.6863 10.2035 44.6472 9.97656 44.5312C9.74961 44.4152 9.56663 44.2282 9.45508 43.999C9.34375 43.7702 9.30909 43.5115 9.35742 43.2617L12.0986 29.5273L12.1533 29.2568L11.8945 29.1592L1.08887 25.1074H1.08789C0.906273 25.0394 0.744069 24.9271 0.616211 24.7812C0.488496 24.6355 0.399114 24.4603 0.355469 24.2715C0.311862 24.0825 0.315267 23.8854 0.366211 23.6982C0.417248 23.5111 0.513957 23.339 0.647461 23.1982L0.649414 23.1963L21.6494 0.696289C21.8237 0.510437 22.0537 0.386553 22.3047 0.342773ZM19.7627 6.15527L3.89648 23.1543L3.56445 23.5088L4.01953 23.6797L13.9258 27.4004V27.4014C14.1859 27.5002 14.4026 27.6881 14.5371 27.9316C14.6547 28.1448 14.7033 28.3886 14.6768 28.6289L14.6602 28.7324L12.6973 38.5537L12.4727 39.6768L13.2529 38.8389L29.1143 21.8311L29.4453 21.4756L28.9902 21.3047L19.0908 17.5928H19.0918C18.8317 17.4939 18.6149 17.3061 18.4805 17.0625C18.346 16.8189 18.3025 16.5355 18.3574 16.2627V16.2617L20.3184 6.44043L20.543 5.31934L19.7627 6.15527Z" fill="#3B5941" stroke="white" stroke-width="0.65"/>
</svg>
