<svg width="39" height="41" viewBox="0 0 39 41" fill="none" xmlns="http://www.w3.org/2000/svg">
<path d="M37.4014 0.259766C37.6295 0.0988364 37.9003 0.0414886 38.0889 0.173828V0.174805L38.1006 0.180664C38.2489 0.259149 38.3546 0.354951 38.4238 0.464844C38.4928 0.57435 38.5293 0.703883 38.5293 0.857422V0.858398C38.6094 6.71105 37.7273 12.3941 35.8838 17.9072C34.2766 22.4995 32.5975 27.7421 27.8027 31.9707C26.2017 33.3261 22.8435 35.8632 18.1289 36.8779C17.2432 37.0484 15.6476 37.3857 13.8936 37.3857C12.0626 37.3857 9.99695 36.9645 8.1709 35.79C8.15597 35.776 8.13639 35.7595 8.11523 35.7422C8.08561 35.718 8.04747 35.6867 8.00195 35.6504C7.91047 35.5775 7.78811 35.4797 7.64355 35.3584C7.3545 35.1158 6.97618 34.7786 6.57812 34.3574L6.49805 34.2734L6.42676 34.3643C4.82239 36.4016 3.13788 38.4392 1.37305 40.4766C1.29851 40.5554 1.22792 40.6099 1.15234 40.6455C1.07732 40.6808 0.99164 40.7002 0.883789 40.7002C0.752658 40.7002 0.534935 40.627 0.305664 40.4668C0.0293119 40.1655 0.0315193 39.7221 0.313477 39.4238L0.31543 39.4229C2.1644 37.3811 3.93292 35.254 5.54102 33.127L5.5918 33.0596L5.53418 32.998C5.50609 32.9683 5.49084 32.9391 5.4707 32.8965C5.45233 32.8576 5.4279 32.8085 5.38379 32.7578H5.38477C3.75321 30.189 3.21274 26.9614 3.43262 23.7568C3.65248 20.5526 4.63159 17.3797 6.0293 14.9287C6.6697 13.8276 9.06763 10.0257 13.377 7.83008H13.3779C16.2501 6.31044 19.363 5.8866 24.5078 5.20605H24.5098C25.0687 5.12157 25.5078 5.07866 25.8682 5.04688C26.2208 5.01578 26.5044 4.9932 26.748 4.95117C27.236 4.95061 27.5737 4.86437 28.2021 4.78125L28.21 4.7793C31.4368 4.09627 34.5809 2.56076 37.4014 0.259766ZM36.9648 2.47559C34.4901 4.22143 31.8047 5.44637 29.1729 6.15039L28.6475 6.28418C27.9297 6.45294 27.6225 6.45056 27.0498 6.53711L27.0469 6.53809C26.8114 6.57958 26.5359 6.60071 26.1719 6.63281C25.9908 6.64878 25.7893 6.66705 25.5625 6.69238L24.8027 6.79199C19.8281 7.47124 16.8381 7.89806 14.0898 9.2666L14.0889 9.26758C10.1298 11.3195 7.94925 14.7366 7.38184 15.7656C6.12996 17.9877 5.22163 20.8273 4.97949 23.6885C4.73741 26.549 5.16027 29.4405 6.58008 31.7588L6.6582 31.8857L6.74609 31.7656C7.30808 31.001 7.87184 30.234 8.43555 29.3818C9.00001 28.5285 9.47898 27.7691 9.88086 27.1738L9.89746 27.1484V17.8545C9.89746 17.6206 9.97165 17.4338 10.0918 17.3066C10.2114 17.1802 10.3845 17.1046 10.6006 17.1045C10.8169 17.1045 10.9907 17.1801 11.1104 17.3066C11.2305 17.4338 11.3037 17.6206 11.3037 17.8545V24.9141L11.4883 24.6211C12.2877 23.3522 12.9232 22.5123 14.1963 21.502L14.1982 21.501C14.9138 20.9121 15.6301 20.4907 16.2695 20.1523L16.3223 20.124V14.4551C16.3223 14.2212 16.3965 14.0344 16.5166 13.9072C16.6362 13.7809 16.8093 13.7051 17.0254 13.7051C17.2418 13.7051 17.4155 13.7807 17.5352 13.9072C17.6553 14.0344 17.7285 14.2212 17.7285 14.4551V19.5312L17.8652 19.4766C18.5034 19.2234 19.0627 19.0547 19.625 18.8848L19.624 18.8838C20.5924 18.6274 21.5619 18.2869 22.6113 17.7744L22.6826 17.7393L22.6641 17.6611L21.1387 11.2871H21.1396L21.1348 11.2754L21.1143 11.207C21.0766 11.0464 21.1117 10.8725 21.1982 10.7227C21.2976 10.5509 21.4567 10.4241 21.624 10.3887L21.6338 10.3867L21.6426 10.3828C21.8056 10.3138 21.9913 10.3457 22.1514 10.4492C22.3119 10.553 22.4342 10.7219 22.4688 10.9043L22.4697 10.9082L23.835 16.7725L23.877 16.9531L24.0049 16.8184C24.0751 16.744 24.1652 16.6861 24.2676 16.6211C24.3622 16.561 24.4684 16.4934 24.5566 16.4033C26.4163 14.9487 27.9496 12.9828 29.1592 10.6797C29.378 10.2939 29.7994 10.1573 30.1426 10.375C30.5042 10.6046 30.6425 11.0581 30.4307 11.4316L30.4287 11.4355C29.3106 13.6329 27.8728 15.4082 26.1943 16.9307L26.002 17.1045H31.4014C31.6177 17.1045 31.7915 17.18 31.9111 17.3066C32.0313 17.4338 32.1045 17.6207 32.1045 17.8545C32.1045 18.088 32.0311 18.2742 31.9111 18.4014C31.7915 18.528 31.6177 18.6045 31.4014 18.6045H23.9834L23.958 18.6201C22.5313 19.5427 21.2655 19.8794 19.9805 20.3037H19.917L19.8857 20.499L25.1035 22.1973V22.1982C25.5358 22.3507 25.7426 22.8018 25.6064 23.1689C25.4559 23.4843 25.1657 23.7029 24.8965 23.7031H24.6719L17.2979 21.2441L17.2607 21.2314L17.2236 21.248C16.5882 21.5469 15.8874 21.9133 15.1777 22.4609L14.873 22.707C13.4942 23.8232 13.0825 24.6038 11.8809 26.4688C11.8374 26.5187 11.7956 26.5843 11.7607 26.6396C11.7189 26.7061 11.6843 26.7601 11.6523 26.7939L11.5537 26.8984L11.6865 26.9551L18.7539 29.9297L18.7588 29.9316C19.1778 30.0794 19.3253 30.5235 19.1807 30.9062L19.2744 30.9414L19.1797 30.9062L19.1768 30.9189C19.1104 31.1993 18.8431 31.3515 18.5518 31.3516C18.4906 31.3516 18.4441 31.3363 18.3994 31.3174C18.3797 31.309 18.3507 31.295 18.3271 31.2861C18.3077 31.2789 18.2839 31.2728 18.2578 31.2695L10.8809 28.1299L10.8047 28.0977L10.7588 28.166C10.5593 28.4616 10.3402 28.7571 10.1084 29.0771C9.87787 29.3954 9.63642 29.7364 9.39453 30.1201C8.75185 31.0551 8.11041 31.9877 7.38965 32.9199L7.34277 32.9814L7.38965 33.043C7.75632 33.5172 8.12368 33.8619 8.39941 34.0889C8.5373 34.2023 8.65223 34.2869 8.7334 34.3428C8.77381 34.3706 8.80597 34.3912 8.82812 34.4053C8.83922 34.4123 8.84854 34.4182 8.85449 34.4219C8.85722 34.4235 8.85979 34.4249 8.86133 34.4258L8.86328 34.4268L9.15918 34.6172C10.6751 35.5379 12.3788 35.8 13.9141 35.79C15.5516 35.7793 17.0071 35.4587 17.8486 35.2891H17.8496C22.2892 34.3495 25.4361 31.9585 26.8887 30.6777C31.4089 26.7486 33.0226 21.879 34.5479 17.292C36.1577 12.6071 36.9622 7.66795 37.123 2.56055L37.1289 2.35938L36.9648 2.47559Z" fill="#3B5941" stroke="white" stroke-width="0.2"/>
</svg>
