<svg width="31" height="46" viewBox="0 0 31 46" fill="none" xmlns="http://www.w3.org/2000/svg">
<path d="M29.3877 18.7605H16.1632V15.3013C17.3304 15.6117 18.5315 15.7695 19.7377 15.7707C21.1165 15.8115 22.4893 15.5695 23.7748 15.0593C25.0604 14.549 26.2327 13.7808 27.2224 12.8C31.7863 8.14181 29.6417 1.35739 29.5478 1.07104C29.512 0.960508 29.4514 0.860069 29.3708 0.777769C29.2902 0.695469 29.1918 0.633599 29.0835 0.597109C28.8022 0.501189 22.1571 -1.68799 17.5939 2.97094C16.6445 3.94003 15.9065 5.10315 15.4286 6.38396C14.9506 5.10315 14.2127 3.94003 13.2632 2.97094C8.70071 -1.68874 2.05487 0.501189 1.77363 0.597109C1.66538 0.633599 1.56694 0.695469 1.48631 0.777769C1.40569 0.860069 1.34506 0.960508 1.3094 1.07104C1.21536 1.35739 -0.929094 8.14181 3.63476 12.8C4.62434 13.781 5.79662 14.5494 7.08223 15.0596C8.36785 15.5699 9.74065 15.8117 11.1194 15.7707C12.3256 15.7695 13.5267 15.6117 14.6939 15.3013V18.7605H1.46937C1.07988 18.761 0.706403 18.9192 0.430952 19.2004C0.1555 19.4816 0.000519184 19.8628 0 20.2605V23.2605C0.000519184 23.6581 0.1555 24.0393 0.430952 24.3205C0.706403 24.6017 1.07988 24.7599 1.46937 24.7605H1.52187L2.78956 42.2324C2.84716 42.9865 3.18062 43.6909 3.7236 44.2056C4.26659 44.7203 4.97944 45.0076 5.7204 45.0105H25.1367C25.8778 45.0076 26.5905 44.7203 27.1335 44.2056C27.6765 43.6909 28.0099 42.9865 28.0675 42.2324L29.3352 24.7605H29.3877C29.7773 24.7599 30.1507 24.6017 30.4262 24.3205C30.7017 24.0393 30.8566 23.6581 30.8571 23.2605V20.2605C30.8566 19.8628 30.7017 19.4816 30.4262 19.2004C30.1507 18.9192 29.7773 18.761 29.3877 18.7605ZM18.6328 4.03144C21.9903 0.603938 26.8938 1.56176 28.2573 1.91644C28.6074 3.30731 29.5538 8.30021 26.1838 11.7397C23.3371 14.6463 19.3879 14.3985 17.4182 14.0405L22.9276 8.41571C23.0614 8.27426 23.1355 8.08481 23.1338 7.88816C23.1322 7.69152 23.0549 7.50341 22.9186 7.36435C22.7824 7.22529 22.5982 7.14642 22.4055 7.14471C22.2129 7.143 22.0273 7.2186 21.8888 7.35521L16.3763 12.9824C16.238 12.1961 16.169 11.3987 16.1701 10.5998C16.1701 10.5296 16.1701 10.4604 16.169 10.389C16.1414 8.02195 17.0264 5.73863 18.6328 4.03144ZM14.4782 12.9798L8.96844 7.35484C8.82983 7.21822 8.64429 7.14263 8.4516 7.14433C8.25902 7.14604 8.07475 7.22492 7.93849 7.36398C7.80223 7.50303 7.72504 7.69114 7.72338 7.88779C7.72171 8.08444 7.79567 8.27389 7.92958 8.41534L13.4415 14.043C11.4755 14.4045 7.53157 14.6573 4.67361 11.7398C1.31606 8.31229 2.25431 3.30739 2.60178 1.91479C3.96498 1.55809 8.85461 0.591258 12.2246 4.03144C15.0711 6.93761 14.8292 10.9692 14.4782 12.9798ZM26.6026 42.1211C26.5738 42.4983 26.407 42.8506 26.1354 43.108C25.8639 43.3654 25.5074 43.5091 25.1367 43.5105H5.7204C5.34982 43.5091 4.99325 43.3654 4.72171 43.108C4.45007 42.8506 4.28334 42.4983 4.25464 42.1211L2.99538 24.7605H27.8617L26.6026 42.1211ZM28.653 23.2605H1.46937V20.2605H29.3877L29.3892 23.2605H28.653Z" fill="#3B5941"/>
</svg>
