<svg width="33" height="42" viewBox="0 0 33 42" fill="none" xmlns="http://www.w3.org/2000/svg">
<path d="M16.4922 0.299805C16.7383 0.299805 16.979 0.375478 17.1807 0.516602C19.8329 2.47005 22.273 4.6952 24.4629 7.1543L24.8984 7.64941C30.0212 13.5325 32.7002 19.706 32.7002 25.5C32.7001 29.7964 30.9931 33.9171 27.9551 36.9551C24.917 39.993 20.7964 41.6992 16.5 41.6992C12.2036 41.6992 8.08299 39.993 5.04492 36.9551C2.00693 33.9171 0.299916 29.7964 0.299805 25.5C0.299805 19.706 2.97878 13.5325 8.10156 7.64941V7.64844C10.3966 4.99337 12.9793 2.60097 15.8027 0.516602L15.8037 0.517578C16.0054 0.376294 16.2459 0.299869 16.4922 0.299805ZM16.3145 3.13867C14.7548 4.36524 11.3584 7.23174 8.34961 11.1445C5.34397 15.0533 2.7002 20.0398 2.7002 25.5C2.70428 29.1585 4.15923 32.6659 6.74609 35.2529C9.25233 37.7592 12.6227 39.2035 16.1572 39.2949L16.5 39.2998C20.1587 39.2957 23.6668 37.84 26.2539 35.2529C28.8408 32.6659 30.2957 29.1585 30.2998 25.5C30.2998 20.0378 27.6562 15.051 24.6504 11.1426C21.6416 7.23026 18.2451 4.36521 16.6855 3.13867L16.5 2.99316L16.3145 3.13867ZM24.8066 26.0205C25.0663 25.8362 25.3892 25.7631 25.7031 25.8164C26.0168 25.8698 26.2963 26.0453 26.4805 26.3047C26.6569 26.5533 26.7311 26.8591 26.6904 27.1602L26.6836 27.1982C26.3054 29.3103 25.2899 31.2564 23.7725 32.7734C22.2557 34.2899 20.3104 35.3045 18.1992 35.6826C18.133 35.6931 18.0661 35.6978 17.999 35.6982C17.6984 35.6979 17.4087 35.5864 17.1875 35.3828C16.966 35.1789 16.8296 34.8986 16.8047 34.5986C16.7798 34.2988 16.868 34.0002 17.0527 33.7627C17.2374 33.5252 17.505 33.3662 17.8018 33.3164H17.8027C21.0355 32.7719 23.7701 30.0367 24.3184 26.7988C24.3717 26.485 24.5471 26.2048 24.8066 26.0205Z" fill="#3B5941" stroke="white" stroke-width="0.6"/>
</svg>
